<svg width="24" height="24" viewBox="0 0 24 24" xmlns="http://www.w3.org/2000/svg">
<path d="M8 17C8.28333 17 8.521 16.904 8.713 16.712C8.905 16.52 9.00067 16.2827 9 16C9 15.7167 8.904 15.4793 8.712 15.288C8.52 15.0967 8.28267 15.0007 8 15C7.71667 15 7.47933 15.096 7.288 15.288C7.09667 15.48 7.00067 15.7173 7 16C7 16.2833 7.096 16.521 7.288 16.713C7.48 16.905 7.71733 17.0007 8 17ZM8 13C8.28333 13 8.521 12.904 8.713 12.712C8.905 12.52 9.00067 12.2827 9 12C9 11.7167 8.904 11.4793 8.712 11.288C8.52 11.0967 8.28267 11.0007 8 11C7.71667 11 7.47933 11.096 7.288 11.288C7.09667 11.48 7.00067 11.7173 7 12C7 12.2833 7.096 12.521 7.288 12.713C7.48 12.905 7.71733 13.0007 8 13ZM8 9C8.28333 9 8.521 8.904 8.713 8.712C8.905 8.52 9.00067 8.28267 9 8C9 7.71667 8.904 7.47933 8.712 7.288C8.52 7.09667 8.28267 7.00067 8 7C7.71667 7 7.47933 7.096 7.288 7.288C7.09667 7.48 7.00067 7.71733 7 8C7 8.28333 7.096 8.521 7.288 8.713C7.48 8.905 7.71733 9.00067 8 9ZM11 17H17V15H11V17ZM11 13H17V11H11V13ZM11 9H17V7H11V9ZM5 21C4.45 21 3.97933 20.8043 3.588 20.413C3.19667 20.0217 3.00067 19.5507 3 19V5C3 4.45 3.196 3.97933 3.588 3.588C3.98 3.19667 4.45067 3.00067 5 3H19C19.55 3 20.021 3.196 20.413 3.588C20.805 3.98 21.0007 4.45067 21 5V19C21 19.55 20.8043 20.021 20.413 20.413C20.0217 20.805 19.5507 21.0007 19 21H5ZM5 19H19V5H5V19Z"/>
</svg>
